<svg width="52" height="52" viewBox="0 0 52 52" fill="none" xmlns="http://www.w3.org/2000/svg">
<path d="M19.5004 4.33357C13.8237 4.33357 9.20874 8.94857 9.20874 14.6252C9.20874 20.1936 13.5637 24.7002 19.2404 24.8952C19.4137 24.8736 19.5871 24.8736 19.7171 24.8952C19.7604 24.8952 19.7821 24.8952 19.8254 24.8952C19.8471 24.8952 19.8471 24.8952 19.8687 24.8952C25.4154 24.7002 29.7704 20.1936 29.7921 14.6252C29.7921 8.94857 25.1771 4.33357 19.5004 4.33357Z" fill="url(#paint0_linear_214_1215)"/>
<path d="M30.5071 30.6586C24.4621 26.6286 14.6037 26.6286 8.5154 30.6586C5.76374 32.5002 4.24707 34.9919 4.24707 37.6569C4.24707 40.3219 5.76374 42.7919 8.49374 44.6119C11.5271 46.6486 15.5137 47.6669 19.5004 47.6669C23.4871 47.6669 27.4737 46.6486 30.5071 44.6119C33.2371 42.7702 34.7537 40.3002 34.7537 37.6136C34.7321 34.9486 33.2371 32.4786 30.5071 30.6586Z" fill="url(#paint1_linear_214_1215)"/>
<path d="M43.3121 15.9036C43.6587 20.1069 40.6687 23.7902 36.5304 24.2886C36.5087 24.2886 36.5087 24.2886 36.4871 24.2886H36.4221C36.2921 24.2886 36.1621 24.2886 36.0537 24.3319C33.9521 24.4402 32.0237 23.7686 30.5721 22.5336C32.8037 20.5402 34.0821 17.5502 33.8221 14.3002C33.6704 12.5452 33.0637 10.9419 32.1537 9.57691C32.9771 9.16524 33.9304 8.90524 34.9054 8.81857C39.1521 8.45024 42.9437 11.6136 43.3121 15.9036Z" fill="url(#paint2_linear_214_1215)"/>
<path d="M47.6454 35.9452C47.4721 38.0469 46.1287 39.8669 43.8754 41.1019C41.7087 42.2936 38.9787 42.8569 36.2704 42.7919C37.8304 41.3836 38.7404 39.6286 38.9137 37.7652C39.1304 35.0786 37.8521 32.5002 35.2954 30.4419C33.8437 29.2936 32.1537 28.3836 30.3121 27.7119C35.1004 26.3252 41.1237 27.2569 44.8287 30.2469C46.8221 31.8502 47.8404 33.8652 47.6454 35.9452Z" fill="url(#paint3_linear_214_1215)"/>
<defs>
<linearGradient id="paint0_linear_214_1215" x1="47.669" y1="47.6669" x2="-1.72291" y2="39.2129" gradientUnits="userSpaceOnUse">
<stop stop-color="#00796D"/>
<stop offset="1" stop-color="#38C682"/>
</linearGradient>
<linearGradient id="paint1_linear_214_1215" x1="47.669" y1="47.6669" x2="-1.72291" y2="39.2129" gradientUnits="userSpaceOnUse">
<stop stop-color="#00796D"/>
<stop offset="1" stop-color="#38C682"/>
</linearGradient>
<linearGradient id="paint2_linear_214_1215" x1="47.669" y1="47.6669" x2="-1.72291" y2="39.2129" gradientUnits="userSpaceOnUse">
<stop stop-color="#00796D"/>
<stop offset="1" stop-color="#38C682"/>
</linearGradient>
<linearGradient id="paint3_linear_214_1215" x1="47.669" y1="47.6669" x2="-1.72291" y2="39.2129" gradientUnits="userSpaceOnUse">
<stop stop-color="#00796D"/>
<stop offset="1" stop-color="#38C682"/>
</linearGradient>
</defs>
</svg>
