<svg width="52" height="52" viewBox="0 0 52 52" fill="none" xmlns="http://www.w3.org/2000/svg">
<path d="M35.078 4.33357H16.9213C9.03467 4.33357 4.33301 9.03524 4.33301 16.9219V35.0569C4.33301 42.9652 9.03467 47.6669 16.9213 47.6669H35.0563C42.943 47.6669 47.6447 42.9652 47.6447 35.0786V16.9219C47.6663 9.03524 42.9647 4.33357 35.078 4.33357ZM24.9813 29.3152L16.9213 37.3752H21.6663C22.5547 37.3752 23.2913 38.1119 23.2913 39.0002C23.2913 39.8886 22.5547 40.6252 21.6663 40.6252H12.9997C12.783 40.6252 12.5663 40.5819 12.3713 40.4952C11.9813 40.3219 11.6563 40.0186 11.483 39.6069C11.418 39.4119 11.3747 39.2169 11.3747 39.0002V30.3336C11.3747 29.4452 12.1113 28.7086 12.9997 28.7086C13.888 28.7086 14.6247 29.4452 14.6247 30.3336V35.0786L22.6847 27.0186C23.313 26.3902 24.353 26.3902 24.9813 27.0186C25.6097 27.6469 25.6097 28.6869 24.9813 29.3152ZM40.6247 21.6669C40.6247 22.5552 39.888 23.2919 38.9997 23.2919C38.1113 23.2919 37.3747 22.5552 37.3747 21.6669V16.9219L29.3147 24.9819C28.9897 25.3069 28.578 25.4586 28.1663 25.4586C27.7547 25.4586 27.343 25.3069 27.018 24.9819C26.3897 24.3536 26.3897 23.3136 27.018 22.6852L35.078 14.6252H30.333C29.4447 14.6252 28.708 13.8886 28.708 13.0002C28.708 12.1119 29.4447 11.3752 30.333 11.3752H38.9997C39.2163 11.3752 39.4113 11.4186 39.628 11.5052C40.018 11.6786 40.343 11.9819 40.5163 12.3936C40.5813 12.5886 40.6247 12.7836 40.6247 13.0002V21.6669Z" fill="url(#paint0_linear_214_1194)"/>
<defs>
<linearGradient id="paint0_linear_214_1194" x1="47.6447" y1="47.6669" x2="-1.62893" y2="39.2546" gradientUnits="userSpaceOnUse">
<stop stop-color="#00796D"/>
<stop offset="1" stop-color="#38C682"/>
</linearGradient>
</defs>
</svg>
