<svg width="52" height="52" viewBox="0 0 52 52" fill="none" xmlns="http://www.w3.org/2000/svg">
<path d="M12.4369 34.6669C12.6753 33.6052 12.2419 32.0886 11.4836 31.3302L6.2186 26.0652C4.57193 24.4186 3.92193 22.6636 4.3986 21.1469C4.89693 19.6302 6.43526 18.5902 8.73193 18.2002L15.4919 17.0736C16.4669 16.9002 17.6586 16.0336 18.1136 15.1452L21.8403 7.67024C22.9236 5.52524 24.3969 4.33357 26.0003 4.33357C27.6036 4.33357 29.0769 5.52524 30.1603 7.67024L33.8869 15.1452C34.1686 15.7086 34.7536 16.2502 35.3819 16.6186L12.0469 39.9536C11.7436 40.2569 11.2236 39.9752 11.3103 39.5419L12.4369 34.6669Z" fill="url(#paint0_linear_214_1208)"/>
<path d="M40.5169 31.3302C39.7369 32.1102 39.3036 33.6052 39.5636 34.6669L41.0586 41.1886C41.6869 43.8969 41.2969 45.9336 39.9536 46.9086C39.4119 47.2986 38.7619 47.4936 38.0036 47.4936C36.8986 47.4936 35.5986 47.0819 34.1686 46.2369L27.8203 42.4669C26.8236 41.8819 25.1769 41.8819 24.1803 42.4669L17.8319 46.2369C15.4269 47.6452 13.3686 47.8836 12.0469 46.9086C11.5486 46.5402 11.1803 46.0419 10.9419 45.3919L37.2886 19.0452C38.2853 18.0486 39.6936 17.5936 41.0586 17.8319L43.2469 18.2002C45.5436 18.5902 47.0819 19.6302 47.5803 21.1469C48.0569 22.6636 47.4069 24.4186 45.7603 26.0652L40.5169 31.3302Z" fill="url(#paint1_linear_214_1208)"/>
<defs>
<linearGradient id="paint0_linear_214_1208" x1="47.7328" y1="47.499" x2="-1.71759" y2="38.9895" gradientUnits="userSpaceOnUse">
<stop stop-color="#00796D"/>
<stop offset="1" stop-color="#38C682"/>
</linearGradient>
<linearGradient id="paint1_linear_214_1208" x1="47.7328" y1="47.499" x2="-1.71759" y2="38.9895" gradientUnits="userSpaceOnUse">
<stop stop-color="#00796D"/>
<stop offset="1" stop-color="#38C682"/>
</linearGradient>
</defs>
</svg>
