<svg width="52" height="52" viewBox="0 0 52 52" fill="none" xmlns="http://www.w3.org/2000/svg">
<path d="M25.8699 4.78837L20.6483 16.9434H15.4266C14.5599 16.9434 13.7149 17.0084 12.8916 17.1817L15.0583 11.9817L15.1449 11.7867L15.2749 11.44C15.3399 11.2884 15.3833 11.1584 15.4483 11.05C17.9616 5.22171 20.7783 3.40171 25.8699 4.78837Z" fill="url(#paint0_linear_147_1237)"/>
<path d="M40.5816 17.5284L40.5383 17.5067C39.2383 17.1384 37.9166 16.9434 36.5733 16.9434H23.0099L27.8849 5.61171L27.9499 5.46004C28.2533 5.56837 28.5783 5.72004 28.9033 5.82837L33.6916 7.84337C36.3566 8.94837 38.2199 10.0967 39.3683 11.4834C39.5633 11.7434 39.7366 11.9817 39.9099 12.2634C40.1049 12.5667 40.2566 12.87 40.3433 13.195C40.4299 13.39 40.4949 13.5634 40.5383 13.7584C40.8633 14.8634 40.8849 16.12 40.5816 17.5284Z" fill="url(#paint1_linear_147_1237)"/>
<path d="M27.1266 38.2634H27.6683C28.3183 38.2634 28.8599 37.6784 28.8599 36.9634C28.8599 36.0534 28.5999 35.9234 28.0366 35.7067L27.1266 35.3817V38.2634Z" fill="url(#paint2_linear_147_1237)"/>
<path d="M39.6283 20.6267C38.6533 20.345 37.6349 20.1934 36.5733 20.1934H15.4266C13.9533 20.1934 12.5666 20.475 11.2666 21.0384C7.4966 22.6634 4.85327 26.4117 4.85327 30.7667V34.9917C4.85327 35.5117 4.8966 36.01 4.9616 36.53C5.43827 43.42 9.1216 47.1034 16.0116 47.5584C16.5099 47.6234 17.0083 47.6667 17.5499 47.6667H34.4499C42.4666 47.6667 46.6916 43.8534 47.1033 36.27C47.1249 35.8584 47.1466 35.425 47.1466 34.9917V30.7667C47.1466 25.9784 43.9616 21.9484 39.6283 20.6267ZM28.7733 33.5834C29.7699 33.93 31.1133 34.6667 31.1133 36.9634C31.1133 38.935 29.5749 40.5167 27.6683 40.5167H27.1266V40.9934C27.1266 41.6217 26.6283 42.12 25.9999 42.12C25.3716 42.12 24.8733 41.6217 24.8733 40.9934V40.5167H24.6783C22.5983 40.5167 20.8866 38.7617 20.8866 36.595C20.8866 35.9667 21.3849 35.4684 22.0133 35.4684C22.6416 35.4684 23.1399 35.9667 23.1399 36.595C23.1399 37.505 23.8333 38.2634 24.6783 38.2634H24.8733V34.6017L23.2266 34.0167C22.2299 33.67 20.8866 32.9334 20.8866 30.6367C20.8866 28.665 22.4249 27.0834 24.3316 27.0834H24.8733V26.6067C24.8733 25.9784 25.3716 25.48 25.9999 25.48C26.6283 25.48 27.1266 25.9784 27.1266 26.6067V27.0834H27.3216C29.4016 27.0834 31.1133 28.8384 31.1133 31.005C31.1133 31.6334 30.6149 32.1317 29.9866 32.1317C29.3583 32.1317 28.8599 31.6334 28.8599 31.005C28.8599 30.095 28.1666 29.3367 27.3216 29.3367H27.1266V32.9984L28.7733 33.5834Z" fill="url(#paint3_linear_147_1237)"/>
<path d="M23.1399 30.6367C23.1399 31.5467 23.3999 31.6767 23.9633 31.8934L24.8733 32.2184V29.3367H24.3316C23.6599 29.3367 23.1399 29.9217 23.1399 30.6367Z" fill="url(#paint4_linear_147_1237)"/>
<defs>
<linearGradient id="paint0_linear_147_1237" x1="47.1466" y1="47.6667" x2="-1.03111" y2="39.6325" gradientUnits="userSpaceOnUse">
<stop stop-color="#00796D"/>
<stop offset="1" stop-color="#38C682"/>
</linearGradient>
<linearGradient id="paint1_linear_147_1237" x1="47.1466" y1="47.6667" x2="-1.03111" y2="39.6325" gradientUnits="userSpaceOnUse">
<stop stop-color="#00796D"/>
<stop offset="1" stop-color="#38C682"/>
</linearGradient>
<linearGradient id="paint2_linear_147_1237" x1="47.1466" y1="47.6667" x2="-1.03111" y2="39.6325" gradientUnits="userSpaceOnUse">
<stop stop-color="#00796D"/>
<stop offset="1" stop-color="#38C682"/>
</linearGradient>
<linearGradient id="paint3_linear_147_1237" x1="47.1466" y1="47.6667" x2="-1.03111" y2="39.6325" gradientUnits="userSpaceOnUse">
<stop stop-color="#00796D"/>
<stop offset="1" stop-color="#38C682"/>
</linearGradient>
<linearGradient id="paint4_linear_147_1237" x1="47.1466" y1="47.6667" x2="-1.03111" y2="39.6325" gradientUnits="userSpaceOnUse">
<stop stop-color="#00796D"/>
<stop offset="1" stop-color="#38C682"/>
</linearGradient>
</defs>
</svg>
